HIERARCHY
ROOT root
{
	OFFSET 0.000000 0.000000 0.000000
	CHANNELS 6 Xposition Yposition Zposition Zrotation Yrotation Xrotation
	JOINT lhip
	{
		OFFSET 0.058581 -0.082280 -0.017664
		CHANNELS 3 Zrotation Yrotation Xrotation
		JOINT lknee
		{
			OFFSET 0.043451 -0.386469 0.008037
			CHANNELS 3 Zrotation Yrotation Xrotation
			JOINT lankle
			{
				OFFSET -0.014790 -0.426874 -0.037428
				CHANNELS 3 Zrotation Yrotation Xrotation
				JOINT ltoe
				{
					OFFSET 0.041054 -0.060286 0.122042
					CHANNELS 3 Zrotation Yrotation Xrotation
					End Site
					{
						OFFSET 0.000000 0.000000 0.000000
					}
				}
			}
		}
	}
	JOINT rhip
	{
		OFFSET -0.060310 -0.090513 -0.013543
		CHANNELS 3 Zrotation Yrotation Xrotation
		JOINT rknee
		{
			OFFSET -0.043257 -0.383688 -0.004843
			CHANNELS 3 Zrotation Yrotation Xrotation
			JOINT rankle
			{
				OFFSET 0.019056 -0.420046 -0.034562
				CHANNELS 3 Zrotation Yrotation Xrotation
				JOINT rtoe
				{
					OFFSET -0.034840 -0.062106 0.130323
					CHANNELS 3 Zrotation Yrotation Xrotation
					End Site
					{
						OFFSET 0.000000 0.000000 0.000000
					}
				}
			}
		}
	}
	JOINT lowerback
	{
		OFFSET 0.004439 0.124404 -0.038385
		CHANNELS 3 Zrotation Yrotation Xrotation
		JOINT upperback
		{
			OFFSET 0.004488 0.137956 0.026820
			CHANNELS 3 Zrotation Yrotation Xrotation
			JOINT chest
			{
				OFFSET -0.002265 0.056032 0.002855
				CHANNELS 3 Zrotation Yrotation Xrotation
				JOINT lowerneck
				{
					OFFSET -0.013390 0.211636 -0.033468
					CHANNELS 3 Zrotation Yrotation Xrotation
					JOINT upperneck
					{
						OFFSET 0.010113 0.088937 0.050410
						CHANNELS 3 Zrotation Yrotation Xrotation
						End Site
						{
							OFFSET 0.000000 0.000000 0.000000
						}
					}
				}
				JOINT lclavicle
				{
					OFFSET 0.071702 0.114000 -0.018898
					CHANNELS 3 Zrotation Yrotation Xrotation
					JOINT lshoulder
					{
						OFFSET 0.122921 0.045205 -0.019046
						CHANNELS 3 Zrotation Yrotation Xrotation
						JOINT lelbow
						{
							OFFSET 0.255332 -0.015649 -0.022946
							CHANNELS 3 Zrotation Yrotation Xrotation
							JOINT lwrist
							{
								OFFSET 0.265709 0.012698 -0.007375
								CHANNELS 3 Zrotation Yrotation Xrotation
								End Site
								{
									OFFSET 0.000000 0.000000 0.000000
								}
							}
						}
					}
				}
				JOINT rclavicle
				{
					OFFSET -0.082954 0.112472 -0.023707
					CHANNELS 3 Zrotation Yrotation Xrotation
					JOINT rshoulder
					{
						OFFSET -0.113228 0.046853 -0.008472
						CHANNELS 3 Zrotation Yrotation Xrotation
						JOINT relbow
						{
							OFFSET -0.260127 -0.014369 -0.031269
							CHANNELS 3 Zrotation Yrotation Xrotation
							JOINT rwrist
							{
								OFFSET -0.269108 0.006794 -0.006027
								CHANNELS 3 Zrotation Yrotation Xrotation
								End Site
								{
									OFFSET 0.000000 0.000000 0.000000
								}
							}
						}
					}
				}
			}
		}
	}
}
MOTION
Frames: 11
Frame Time: 0.033333
0.583301 0.862510 0.986036 -84.881777 3.149180 93.910884 7.306107 -0.962108 0.572898 -4.215055 -7.150445 7.441502 -0.152974 7.968757 -18.930758 0.000000 -0.000000 0.000000 3.214547 1.465601 -9.487625 0.344380 -3.748498 17.167531 0.377624 -9.503207 -15.897213 0.000000 -0.000000 0.000000 0.866014 1.843199 4.834170 6.508755 0.859896 6.823328 3.516887 -5.171640 1.539645 5.611256 1.491739 -8.587237 -1.923380 -5.532260 12.725353 -33.947146 2.199349 8.228602 -57.576099 -4.639225 13.377190 21.369458 -47.058811 -3.946659 5.860327 -13.700196 -15.680065 33.068001 3.779418 4.042438 47.683465 7.671311 13.318029 -19.530382 30.298105 -8.767737 0.224164 11.349611 -9.214644 
0.579005 0.866673 0.985414 -83.948794 3.094918 93.584787 7.688072 -0.900775 1.027339 -4.224584 -7.484989 7.465386 -0.698109 7.373812 -18.762308 0.000000 -0.000000 0.000000 3.436573 1.096136 -8.406036 0.549445 -4.295279 16.322464 0.257745 -9.814925 -16.199408 0.000000 -0.000000 0.000000 0.774265 1.717011 4.090567 6.547326 0.526524 7.364593 3.435956 -5.284729 1.523023 5.963601 1.708293 -9.238588 -2.232928 -5.411137 13.234333 -34.093518 2.417770 8.006442 -57.881565 -4.961772 13.717568 20.972886 -47.227007 -2.906241 5.951933 -14.125543 -15.020054 33.347511 3.369557 3.410164 47.542835 7.890266 13.451545 -19.063583 30.461417 -8.209244 0.100327 12.226617 -8.816080 
0.575971 0.870526 0.984927 -83.709456 3.025293 93.832360 8.006164 -0.644540 1.123969 -4.274995 -7.786894 7.083953 -0.919034 6.992543 -18.810520 0.000000 -0.000000 0.000000 3.433863 0.731536 -8.190638 0.992504 -4.373997 15.877854 -0.226823 -9.529844 -16.032068 0.000000 -0.000000 0.000000 0.593420 1.854150 2.882753 6.543752 0.498767 7.903268 3.408377 -5.119252 1.023967 6.196731 1.905943 -9.327035 -2.354412 -5.781274 13.379624 -34.095067 2.487047 7.834534 -58.284467 -5.101961 13.994102 20.034008 -46.783552 -1.656814 4.177299 -13.921364 -15.130817 33.466866 3.194606 3.744659 47.748367 7.842560 13.475807 -19.424097 30.573036 -7.901711 1.057199 12.319521 -8.763863 
0.571398 0.874493 0.984502 -83.580323 2.978994 93.279180 8.349520 -0.543095 2.193676 -4.311696 -7.825028 6.669107 -1.503774 6.644449 -18.609955 0.000000 -0.000000 0.000000 3.875715 0.427683 -7.111315 0.737272 -4.479529 15.391841 -0.116341 -9.414823 -16.380181 0.000000 -0.000000 0.000000 0.421545 2.027434 2.212952 6.477641 0.480576 8.621261 3.352872 -4.985249 0.763760 6.107183 2.581840 -9.386472 -2.532496 -5.840679 13.711886 -34.316895 2.336293 7.534466 -58.289891 -5.031626 14.246945 19.346173 -46.253049 -0.902491 3.945472 -14.168486 -14.290799 33.946385 3.171976 3.724893 47.752150 7.971434 13.376196 -19.548118 30.120996 -8.178920 1.035037 12.272990 -8.832616 
0.567942 0.877756 0.983498 -83.568593 2.968743 93.223427 8.491925 -0.769578 2.790844 -4.140720 -7.750463 6.079250 -1.331707 6.870728 -18.375688 0.000000 -0.000000 0.000000 4.256545 0.492726 -6.813990 0.572822 -4.122021 15.380241 -0.040365 -9.561998 -15.932265 0.000000 -0.000000 0.000000 0.357139 2.122851 1.435802 6.416777 0.685200 9.113937 3.241330 -4.847119 0.304386 6.271617 2.584467 -9.786152 -2.806709 -5.936019 13.943402 -34.169079 2.342026 7.315190 -58.801445 -4.866042 14.438464 19.041669 -45.521617 -0.016193 0.843674 -13.018366 -14.532149 33.951430 3.003131 3.787052 48.223634 8.047503 13.633133 -19.628691 29.850353 -7.966486 2.631854 12.146532 -8.840576 
0.564751 0.880721 0.982710 -83.401352 2.955251 93.057134 8.653244 -1.142983 3.147097 -4.179209 -7.693474 6.125234 -1.409698 7.210425 -18.515860 0.000000 -0.000000 0.000000 4.595859 0.701823 -6.131687 0.513142 -4.172710 14.815536 -0.514091 -10.038315 -16.042542 0.000000 -0.000000 0.000000 0.496523 2.212485 0.678586 6.241910 0.692248 9.508451 3.043692 -4.905943 0.056162 6.241664 2.661278 -9.847013 -3.156999 -6.038164 13.968603 -34.129087 2.036969 7.269438 -59.182368 -4.749145 14.570429 19.159469 -44.455268 0.506355 0.911927 -12.147898 -14.684644 33.794482 3.163837 3.847624 49.088256 8.228952 13.955093 -19.753395 28.960605 -7.871829 -0.551427 10.956632 -8.640991 
0.561756 0.883918 0.982258 -83.367386 3.186941 92.889937 9.270695 -0.799314 3.527091 -4.297040 -7.699883 6.071298 -1.893863 6.695423 -18.865203 0.000000 -0.000000 0.000000 5.156294 0.030093 -5.655772 0.661292 -3.575804 14.328278 -0.169020 -10.074224 -16.191783 0.000000 -0.000000 0.000000 0.445226 2.459181 -0.076771 6.329912 0.741294 10.045124 3.067411 -4.904755 -0.295644 6.197950 3.045764 -10.288611 -3.327527 -5.778744 14.855335 -34.467166 2.062132 6.946302 -59.386395 -5.267185 14.540721 19.106616 -42.665283 0.364733 1.805152 -13.302139 -13.078285 33.930566 3.194116 3.491068 49.153229 8.294567 14.154137 -19.308183 28.358695 -7.126401 1.950722 11.639709 -9.097257 
0.559622 0.886160 0.981382 -83.106331 2.998536 92.936596 9.260197 -1.110683 3.522386 -4.231916 -7.767037 6.093810 -1.812603 6.646923 -18.788701 0.000000 -0.000000 0.000000 5.201410 0.310255 -5.579468 0.477484 -3.802179 14.306040 -1.078253 -10.485621 -16.105740 0.000000 -0.000000 0.000000 0.258292 2.545183 -1.065469 6.214271 0.779304 10.421633 2.966490 -4.965594 -0.484286 6.290894 3.409526 -10.318024 -3.670164 -5.615996 14.966769 -34.286526 2.217702 6.774372 -59.810506 -5.272009 14.463832 19.270565 -41.730222 0.882361 -0.829146 -12.209339 -13.219836 34.127439 2.855761 3.434554 49.480360 8.724257 14.314583 -19.336948 28.102463 -6.758813 2.878069 12.008069 -8.954127 
0.555973 0.888652 0.980551 -83.087553 2.650705 92.129987 9.156767 -0.864148 4.884700 -4.180571 -8.112813 5.523494 -2.147252 6.456225 -18.819200 0.000000 -0.000000 0.000000 5.157939 0.837981 -4.385457 0.285279 -4.432377 14.354459 -0.903158 -10.578600 -16.760617 0.000000 -0.000000 0.000000 -0.258886 2.636747 -1.164477 6.138229 0.937431 10.762118 3.070123 -5.091610 -0.835981 6.357431 3.537951 -10.127154 -4.000139 -5.706933 15.456789 -34.325990 1.925724 6.704378 -59.948611 -5.159234 14.422319 19.399420 -40.264769 0.515684 1.127839 -13.046773 -12.380320 33.992639 3.089717 3.477169 49.869332 8.415068 14.691681 -19.001289 28.087634 -6.626508 1.602833 11.631177 -9.574156 
0.554041 0.890352 0.980035 -82.766808 2.631660 91.909703 9.229467 -1.052300 5.303691 -4.125763 -8.528932 5.300534 -2.193574 6.736153 -18.983455 0.000000 -0.000000 0.000000 5.288967 0.707754 -3.871432 0.481370 -4.331017 14.037500 -0.854848 -10.904621 -16.864172 0.000000 -0.000000 0.000000 -0.250235 2.652731 -1.787356 6.152694 0.917154 11.081576 2.994218 -5.254920 -0.849724 6.170566 3.927287 -10.446698 -4.079834 -5.640726 15.728014 -34.324715 2.173078 6.258383 -59.896549 -5.354531 14.338328 18.972398 -39.495288 1.170140 0.728600 -12.705972 -12.519381 34.022828 3.060929 3.075525 50.154502 8.498398 15.132452 -19.067501 27.991725 -6.250860 1.156237 11.289601 -9.557374 
0.552189 0.892700 0.979125 -82.613146 2.705660 91.602379 9.610844 -0.826969 5.635059 -4.268030 -8.697831 5.446249 -2.480308 6.499631 -19.118719 0.000000 -0.000000 0.000000 5.716830 0.258500 -3.379821 0.238021 -4.054798 13.934799 -1.158159 -10.796021 -17.137534 0.000000 -0.000000 0.000000 -0.447274 2.845557 -2.488215 6.202588 0.842688 11.719437 3.144593 -5.206692 -1.090107 6.131547 3.943517 -10.718112 -4.005681 -5.708014 16.165284 -33.990035 1.747805 6.607669 -60.370096 -5.364826 14.274838 19.632576 -39.004949 0.282065 1.412349 -12.548816 -12.640990 33.726919 3.478566 3.239299 50.451956 8.617757 14.959851 -18.665146 27.961819 -5.858637 2.884969 12.068661 -9.702019 
